# xmcd
# 
# Track frame offsets:
#     151
#     26276
#     52744
#     80425
#     106000
#     127992
#     150085
#     178220
#     179457
#     205784
#     228338
# 
# Disc length: 3242
# 
# Revision: 1
# Processed by: cddbd v1.5.2PL0 Copyright (c) Steve Scherf et al.
# Submitted via: BonkEnc v1.0.8
# 
DISCID=750ca80b
DTITLE=Sasha Teuber - Basic Colors
DYEAR=1998
DGENRE=Fusion
TTITLE0=The Juggler
TTITLE1=New Monk
TTITLE2=Waiting
TTITLE3=Yoyo
TTITLE4=Our House
TTITLE5=Get U Kix
TTITLE6=Slow Train To China
TTITLE7=No Time Voice Intro
TTITLE8=No Time
TTITLE9=V Stand V Stay
TTITLE10=Lalala-Tralala
EXTD=YEAR: 1998
EXTT0=
EXTT1=
EXTT2=
EXTT3=
EXTT4=
EXTT5=
EXTT6=
EXTT7=
EXTT8=
EXTT9=
EXTT10=
PLAYORDER=
